<svg width="127" height="20" viewBox="0 0 127 20" fill="none" xmlns="http://www.w3.org/2000/svg">
<path d="M15 19L8 14L1 19V3C1 2.46957 1.21071 1.96086 1.58579 1.58579C1.96086 1.21071 2.46957 1 3 1H13C13.5304 1 14.0391 1.21071 14.4142 1.58579C14.7893 1.96086 15 2.46957 15 3V19Z" stroke="white" stroke-width="2" stroke-linecap="round" stroke-linejoin="round"/>
<path d="M31.9248 10.7822H28.1514V13.1543H32.6084V15H25.752V5.04688H32.6221V6.89941H28.1514V8.99805H31.9248V10.7822ZM33.5859 15V5.04688H37.1611C38.4417 5.04688 39.4147 5.28158 40.0801 5.75098C40.75 6.22038 41.085 6.90169 41.085 7.79492C41.085 8.3099 40.9665 8.74967 40.7295 9.11426C40.4925 9.47884 40.1439 9.74772 39.6836 9.9209C40.2031 10.0576 40.6019 10.3128 40.8799 10.6865C41.1579 11.0602 41.2969 11.516 41.2969 12.0537C41.2969 13.029 40.987 13.7627 40.3672 14.2549C39.752 14.7425 38.8382 14.9909 37.626 15H33.5859ZM35.9854 10.7686V13.1543H37.5576C37.9906 13.1543 38.3232 13.0563 38.5557 12.8604C38.7881 12.6598 38.9043 12.3796 38.9043 12.0195C38.9043 11.1901 38.4919 10.7731 37.667 10.7686H35.9854ZM35.9854 9.19629H37.2363C37.7604 9.19173 38.1341 9.09603 38.3574 8.90918C38.5807 8.72233 38.6924 8.44661 38.6924 8.08203C38.6924 7.66276 38.5716 7.36198 38.3301 7.17969C38.0885 6.99284 37.6989 6.89941 37.1611 6.89941H35.9854V9.19629ZM48.5088 13.1543H52.6855V15H46.1094V5.04688H48.5088V13.1543ZM56.0215 15H53.7109V7.60352H56.0215V15ZM53.5742 5.69629C53.5742 5.36816 53.6927 5.09928 53.9297 4.88965C54.1667 4.68001 54.4743 4.5752 54.8525 4.5752C55.2308 4.5752 55.5384 4.68001 55.7754 4.88965C56.0124 5.09928 56.1309 5.36816 56.1309 5.69629C56.1309 6.02441 56.0124 6.29329 55.7754 6.50293C55.5384 6.71257 55.2308 6.81738 54.8525 6.81738C54.4743 6.81738 54.1667 6.71257 53.9297 6.50293C53.6927 6.29329 53.5742 6.02441 53.5742 5.69629ZM59.5625 7.60352L59.6377 8.47168C60.1481 7.80176 60.8522 7.4668 61.75 7.4668C62.5202 7.4668 63.0944 7.69694 63.4727 8.15723C63.8555 8.61751 64.0537 9.31022 64.0674 10.2354V15H61.7568V10.3311C61.7568 9.95736 61.6816 9.68392 61.5312 9.51074C61.3809 9.33301 61.1074 9.24414 60.7109 9.24414C60.2598 9.24414 59.9248 9.42188 59.7061 9.77734V15H57.4023V7.60352H59.5625ZM68.3193 12.2451L67.6699 12.8945V15H65.3662V4.49316H67.6699V10.0713L67.9023 9.76367L69.6387 7.60352H72.4004L69.8096 10.6455L72.5713 15H69.9326L68.3193 12.2451ZM75.5107 13.1543H79.6875V15H73.1113V5.04688H75.5107V13.1543ZM83.0234 15H80.7129V7.60352H83.0234V15ZM80.5762 5.69629C80.5762 5.36816 80.6947 5.09928 80.9316 4.88965C81.1686 4.68001 81.4762 4.5752 81.8545 4.5752C82.2327 4.5752 82.5404 4.68001 82.7773 4.88965C83.0143 5.09928 83.1328 5.36816 83.1328 5.69629C83.1328 6.02441 83.0143 6.29329 82.7773 6.50293C82.5404 6.71257 82.2327 6.81738 81.8545 6.81738C81.4762 6.81738 81.1686 6.71257 80.9316 6.50293C80.6947 6.29329 80.5762 6.02441 80.5762 5.69629ZM88.3213 12.9219C88.3213 12.7259 88.2188 12.5687 88.0137 12.4502C87.8086 12.3317 87.4189 12.2087 86.8447 12.0811C86.2705 11.9535 85.7965 11.7871 85.4229 11.582C85.0492 11.3724 84.7643 11.1195 84.5684 10.8232C84.3724 10.527 84.2744 10.1875 84.2744 9.80469C84.2744 9.12565 84.5547 8.56738 85.1152 8.12988C85.6758 7.68783 86.4095 7.4668 87.3164 7.4668C88.2917 7.4668 89.0755 7.68783 89.668 8.12988C90.2604 8.57194 90.5566 9.15299 90.5566 9.87305H88.2461C88.2461 9.2806 87.9339 8.98438 87.3096 8.98438C87.068 8.98438 86.8652 9.05273 86.7012 9.18945C86.5371 9.32161 86.4551 9.48796 86.4551 9.68848C86.4551 9.89355 86.5553 10.0599 86.7559 10.1875C86.9564 10.3151 87.2754 10.4199 87.7129 10.502C88.1549 10.584 88.5423 10.682 88.875 10.7959C89.987 11.1787 90.543 11.8646 90.543 12.8535C90.543 13.528 90.2422 14.0771 89.6406 14.501C89.0436 14.9248 88.2689 15.1367 87.3164 15.1367C86.6829 15.1367 86.1178 15.0228 85.6211 14.7949C85.1243 14.5671 84.737 14.2572 84.459 13.8652C84.181 13.4733 84.042 13.0609 84.042 12.6279H86.1953C86.2044 12.9697 86.3184 13.2204 86.5371 13.3799C86.7559 13.5348 87.0361 13.6123 87.3779 13.6123C87.6924 13.6123 87.9271 13.5485 88.082 13.4209C88.2415 13.2933 88.3213 13.127 88.3213 12.9219ZM94.3096 5.76465V7.60352H95.5264V9.20312H94.3096V12.5869C94.3096 12.8649 94.3597 13.0586 94.46 13.168C94.5602 13.2773 94.7585 13.332 95.0547 13.332C95.2826 13.332 95.474 13.3184 95.6289 13.291V14.9385C95.2142 15.0706 94.7812 15.1367 94.3301 15.1367C93.5371 15.1367 92.9515 14.9499 92.5732 14.5762C92.195 14.2025 92.0059 13.6351 92.0059 12.874V9.20312H91.0625V7.60352H92.0059V5.76465H94.3096ZM102.875 12.2588L104.044 7.60352H106.471L104.058 15H101.706L99.293 7.60352H101.727L102.875 12.2588ZM114.031 10.9326C114.031 12.277 113.728 13.3138 113.122 14.043C112.521 14.7721 111.671 15.1367 110.572 15.1367C109.465 15.1367 108.608 14.7699 108.002 14.0361C107.396 13.3024 107.093 12.2679 107.093 10.9326V9.11426C107.093 7.76986 107.394 6.73307 107.995 6.00391C108.601 5.27474 109.456 4.91016 110.559 4.91016C111.661 4.91016 112.516 5.27702 113.122 6.01074C113.728 6.74447 114.031 7.78125 114.031 9.12109V10.9326ZM111.728 8.82031C111.728 8.10482 111.634 7.57161 111.447 7.2207C111.26 6.86523 110.964 6.6875 110.559 6.6875C110.162 6.6875 109.873 6.85156 109.69 7.17969C109.513 7.50781 109.417 8.00456 109.403 8.66992V11.2129C109.403 11.9557 109.497 12.5003 109.684 12.8467C109.87 13.1885 110.167 13.3594 110.572 13.3594C110.964 13.3594 111.254 13.193 111.44 12.8604C111.627 12.5231 111.723 11.9967 111.728 11.2812V8.82031ZM116.69 12.7646C117.055 12.7646 117.358 12.874 117.6 13.0928C117.841 13.307 117.962 13.5827 117.962 13.9199C117.962 14.2572 117.841 14.5352 117.6 14.7539C117.358 14.9681 117.055 15.0752 116.69 15.0752C116.321 15.0752 116.016 14.9658 115.774 14.7471C115.537 14.5283 115.419 14.2526 115.419 13.9199C115.419 13.5872 115.537 13.3115 115.774 13.0928C116.016 12.874 116.321 12.7646 116.69 12.7646ZM124.572 15H122.262V7.64453L119.992 8.30762V6.55762L124.36 5.04688H124.572V15Z" fill="white"/>
</svg>
